<?xml version="1.0" encoding="utf-8"?>
<!-- Generator: Adobe Illustrator 22.0.1, SVG Export Plug-In . SVG Version: 6.00 Build 0)  -->
<svg version="1.1" id="Warstwa_1" xmlns="http://www.w3.org/2000/svg" xmlns:xlink="http://www.w3.org/1999/xlink" x="0px" y="0px"
	 viewBox="0 0 70 70" style="enable-background:new 0 0 70 70;" xml:space="preserve">
<style type="text/css">
	.st0{fill:url(#SVGID_1_);}
	.st1{fill:#444B4C;}
	.st2{fill:url(#SVGID_2_);}
	.st3{fill:url(#SVGID_3_);}
	.st4{fill:#333333;}
	.st5{fill:url(#SVGID_4_);}
	.st6{fill:url(#SVGID_5_);}
	.st7{fill:url(#SVGID_6_);}
	.st8{fill:url(#SVGID_7_);}
	.st9{fill:url(#SVGID_8_);}
	.st10{fill:url(#SVGID_9_);}
	.st11{fill:url(#SVGID_10_);}
	.st12{fill:url(#SVGID_11_);}
	.st13{fill:url(#SVGID_12_);}
	.st14{fill:#BDD5E5;}
	.st15{fill:url(#SVGID_13_);}
	.st16{fill:#005D6C;}
	.st17{fill:url(#SVGID_14_);}
	.st18{fill:url(#SVGID_15_);}
	.st19{fill:url(#SVGID_16_);}
	.st20{fill:url(#SVGID_17_);}
</style>
<g>
	<g>
		<linearGradient id="SVGID_1_" gradientUnits="userSpaceOnUse" x1="-5.1176" y1="-3.7671" x2="69.134" y2="67.9844">
			<stop  offset="0" style="stop-color:#DEEBF2"/>
			<stop  offset="0.1033" style="stop-color:#D5E1E8"/>
			<stop  offset="0.2811" style="stop-color:#BCC6CC"/>
			<stop  offset="0.512" style="stop-color:#939B9F"/>
			<stop  offset="0.7839" style="stop-color:#5C5F61"/>
			<stop  offset="1" style="stop-color:#2B2B2B"/>
		</linearGradient>
		<path class="st0" d="M35,0C15.7,0,0,15.7,0,35c0,19.3,15.7,35,35,35c19.3,0,35-15.7,35-35C70,15.7,54.3,0,35,0z M35,68.2
			C16.6,68.2,1.8,53.4,1.8,35C1.8,16.6,16.6,1.8,35,1.8S68.2,16.6,68.2,35C68.2,53.4,53.4,68.2,35,68.2z"/>
		<path class="st1" d="M68.5,35c0,18.5-15,33.5-33.5,33.5c-18.5,0-33.5-15-33.5-33.5c0-18.5,15-33.5,33.5-33.5
			C53.5,1.5,68.5,16.5,68.5,35z"/>
		
			<radialGradient id="SVGID_2_" cx="-84.413" cy="-75.1407" r="167.5655" gradientTransform="matrix(0.2968 0 0 0.2968 24.6137 24.6137)" gradientUnits="userSpaceOnUse">
			<stop  offset="0" style="stop-color:#FFFFFF"/>
			<stop  offset="0.3064" style="stop-color:#A8A8A8"/>
			<stop  offset="0.6461" style="stop-color:#4F4F4F"/>
			<stop  offset="0.8853" style="stop-color:#161616"/>
			<stop  offset="1" style="stop-color:#000000"/>
		</radialGradient>
		<path class="st2" d="M68.2,35c0,18.4-14.9,33.2-33.2,33.2S1.8,53.4,1.8,35C1.8,16.6,16.6,1.8,35,1.8S68.2,16.6,68.2,35z"/>
		
			<linearGradient id="SVGID_3_" gradientUnits="userSpaceOnUse" x1="-7794.6147" y1="-7558.6787" x2="-7747.3242" y2="-7512.9805" gradientTransform="matrix(-1 0 0 -1 -7734.064 -7498.9888)">
			<stop  offset="0" style="stop-color:#DEEBF2"/>
			<stop  offset="8.895580e-02" style="stop-color:#D5E1E8"/>
			<stop  offset="0.2421" style="stop-color:#BBC6CC"/>
			<stop  offset="0.4411" style="stop-color:#929A9F"/>
			<stop  offset="0.6781" style="stop-color:#585D60"/>
			<stop  offset="0.9446" style="stop-color:#101111"/>
			<stop  offset="1" style="stop-color:#000000"/>
		</linearGradient>
		<path class="st3" d="M57.3,35c0,12.3-10,22.3-22.3,22.3c-12.3,0-22.3-10-22.3-22.3c0-12.3,10-22.3,22.3-22.3
			C47.3,12.7,57.3,22.7,57.3,35z"/>
		<g>
			<polygon points="35.9,12.1 38.2,6 38.2,12.1 40,12.1 40,3.3 37.3,3.3 34.9,9.6 34.9,9.6 32.5,3.3 29.9,3.3 29.9,12.1 31.7,12.1 
				31.7,6 34,12.1 			"/>
		</g>
		<g>
			<polygon points="60,16 57,20.4 61.7,18.1 63,19.6 55.6,23.4 54.1,21.6 57,17.2 57,17.2 52.2,19.2 50.6,17.4 55.7,10.8 56.9,12.3 
				53.8,16.6 58.7,14.4 			"/>
		</g>
		<path class="st4" d="M19.4,14.4c-0.7-0.7-1.8-0.9-2.8-0.3c0.2-0.5,0.1-1,0-1.3c-0.4-0.8-0.6-0.9-1-1.2c-1.2-1-2.4-0.1-3.3,0.9
			l-4.3,5.1l6.7,5.7l4.5-5.4C20.4,16.6,20.5,15.4,19.4,14.4z M10.7,16.8l2.6-3.1c0.3-0.4,1-0.3,1.4,0c0.5,0.4,0.5,1,0.2,1.3l-2.5,3
			L10.7,16.8z M17.8,17.3l-2.7,3.2l-1.7-1.4l2.7-3.2c0.3-0.4,1-0.5,1.4-0.1C18.1,16.3,18.2,16.9,17.8,17.3z"/>
		<g>
			<g>
				
					<radialGradient id="SVGID_4_" cx="-114.5054" cy="-92.2055" r="402.6292" gradientTransform="matrix(0.2968 0 0 0.2968 24.6137 24.6137)" gradientUnits="userSpaceOnUse">
					<stop  offset="0" style="stop-color:#FFFFFF"/>
					<stop  offset="0.3102" style="stop-color:#FDFDFD"/>
					<stop  offset="0.4505" style="stop-color:#F6F6F6"/>
					<stop  offset="0.5567" style="stop-color:#E9E9E9"/>
					<stop  offset="0.6456" style="stop-color:#D7D7D7"/>
					<stop  offset="0.7238" style="stop-color:#BFBFBF"/>
					<stop  offset="0.7944" style="stop-color:#A2A2A2"/>
					<stop  offset="0.8593" style="stop-color:#808080"/>
					<stop  offset="0.9199" style="stop-color:#575757"/>
					<stop  offset="0.9746" style="stop-color:#2B2B2B"/>
					<stop  offset="1" style="stop-color:#141414"/>
				</radialGradient>
				<polygon class="st5" points="35.9,11.8 38.2,5.6 38.2,11.8 40,11.8 40,3 37.3,3 34.9,9.3 35,9.3 32.6,3 29.9,3 29.9,11.8 
					31.7,11.8 31.7,5.6 34,11.8 				"/>
			</g>
			<g>
				
					<radialGradient id="SVGID_5_" cx="-114.5266" cy="-92.2048" r="402.6706" gradientTransform="matrix(0.2968 0 0 0.2968 24.6137 24.6137)" gradientUnits="userSpaceOnUse">
					<stop  offset="0" style="stop-color:#FFFFFF"/>
					<stop  offset="0.3102" style="stop-color:#FDFDFD"/>
					<stop  offset="0.4505" style="stop-color:#F6F6F6"/>
					<stop  offset="0.5567" style="stop-color:#E9E9E9"/>
					<stop  offset="0.6456" style="stop-color:#D7D7D7"/>
					<stop  offset="0.7238" style="stop-color:#BFBFBF"/>
					<stop  offset="0.7944" style="stop-color:#A2A2A2"/>
					<stop  offset="0.8593" style="stop-color:#808080"/>
					<stop  offset="0.9199" style="stop-color:#575757"/>
					<stop  offset="0.9746" style="stop-color:#2B2B2B"/>
					<stop  offset="1" style="stop-color:#141414"/>
				</radialGradient>
				<polygon class="st6" points="60,15.5 57,19.8 61.8,17.5 63,19.1 55.6,22.8 54.1,21 57,16.6 57,16.6 52.2,18.7 50.7,16.8 
					55.7,10.2 57,11.8 53.8,16 58.7,13.8 				"/>
			</g>
			
				<radialGradient id="SVGID_6_" cx="-114.532" cy="-92.2079" r="402.6844" gradientTransform="matrix(0.2968 0 0 0.2968 24.6137 24.6137)" gradientUnits="userSpaceOnUse">
				<stop  offset="0" style="stop-color:#FFFFFF"/>
				<stop  offset="0.3102" style="stop-color:#FDFDFD"/>
				<stop  offset="0.4505" style="stop-color:#F6F6F6"/>
				<stop  offset="0.5567" style="stop-color:#E9E9E9"/>
				<stop  offset="0.6456" style="stop-color:#D7D7D7"/>
				<stop  offset="0.7238" style="stop-color:#BFBFBF"/>
				<stop  offset="0.7944" style="stop-color:#A2A2A2"/>
				<stop  offset="0.8593" style="stop-color:#808080"/>
				<stop  offset="0.9199" style="stop-color:#575757"/>
				<stop  offset="0.9746" style="stop-color:#2B2B2B"/>
				<stop  offset="1" style="stop-color:#141414"/>
			</radialGradient>
			<path class="st7" d="M19.1,14.2c-0.7-0.7-1.8-0.9-2.8-0.3c0.2-0.5,0.1-1,0-1.3c-0.4-0.8-0.6-0.9-1-1.2c-1.2-1-2.4-0.1-3.3,0.9
				l-4.3,5.1l6.7,5.7l4.5-5.4C20,16.5,20.2,15.3,19.1,14.2z M10.4,16.7l2.6-3.1c0.3-0.4,1-0.3,1.4,0c0.5,0.4,0.5,1,0.2,1.3L12,18
				L10.4,16.7z M17.5,17.2l-2.7,3.2L13.1,19l2.7-3.2c0.3-0.4,1-0.5,1.4-0.1C17.8,16.1,17.9,16.7,17.5,17.2z"/>
		</g>
	</g>
	<g>
		
			<radialGradient id="SVGID_7_" cx="-42.3957" cy="-36.3843" r="108.6029" gradientTransform="matrix(0.2968 0 0 0.2968 24.6137 24.6137)" gradientUnits="userSpaceOnUse">
			<stop  offset="0" style="stop-color:#E6E6E6"/>
			<stop  offset="0.1045" style="stop-color:#D6D6D6"/>
			<stop  offset="0.3074" style="stop-color:#ADADAD"/>
			<stop  offset="0.5884" style="stop-color:#6C6C6C"/>
			<stop  offset="0.9335" style="stop-color:#121212"/>
			<stop  offset="1" style="stop-color:#000000"/>
		</radialGradient>
		<path class="st8" d="M13.5,35c0-11.9,9.6-21.6,21.5-21.6c11.9,0,21.5,9.6,21.5,21.6c0,11.9-9.6,21.5-21.5,21.5
			C23.1,56.5,13.5,46.9,13.5,35z"/>
		
			<radialGradient id="SVGID_8_" cx="-12.6917" cy="-21.7775" r="157.9402" gradientTransform="matrix(0.2968 0 0 0.2968 24.6137 24.6137)" gradientUnits="userSpaceOnUse">
			<stop  offset="0" style="stop-color:#FFFFFF"/>
			<stop  offset="0.3435" style="stop-color:#FDFDFD"/>
			<stop  offset="0.4814" style="stop-color:#F6F6F6"/>
			<stop  offset="0.5824" style="stop-color:#EAEAEA"/>
			<stop  offset="0.6654" style="stop-color:#D8D8D8"/>
			<stop  offset="0.7373" style="stop-color:#C2C2C2"/>
			<stop  offset="0.8016" style="stop-color:#A6A6A6"/>
			<stop  offset="0.8602" style="stop-color:#848484"/>
			<stop  offset="0.9126" style="stop-color:#5F5F5F"/>
			<stop  offset="0.9494" style="stop-color:#404040"/>
			<stop  offset="0.9566" style="stop-color:#404040"/>
			<stop  offset="1" style="stop-color:#404040"/>
			<stop  offset="1" style="stop-color:#000000"/>
		</radialGradient>
		<path class="st9" d="M14.1,35c0-11.6,9.4-20.9,20.9-20.9S55.9,23.4,55.9,35c0,11.6-9.4,20.9-20.9,20.9S14.1,46.6,14.1,35z"/>
		<g>
			
				<radialGradient id="SVGID_9_" cx="-59.0648" cy="-81.6474" r="279.7131" gradientTransform="matrix(0.2968 0 0 0.2968 24.6137 24.6137)" gradientUnits="userSpaceOnUse">
				<stop  offset="0.1685" style="stop-color:#FFFFFF"/>
				<stop  offset="0.1884" style="stop-color:#E2F5FB"/>
				<stop  offset="0.2282" style="stop-color:#AEE2F4"/>
				<stop  offset="0.2697" style="stop-color:#7FD1EE"/>
				<stop  offset="0.312" style="stop-color:#58C3E9"/>
				<stop  offset="0.3554" style="stop-color:#38B7E5"/>
				<stop  offset="0.4002" style="stop-color:#1FAEE2"/>
				<stop  offset="0.447" style="stop-color:#0EA8E0"/>
				<stop  offset="0.4971" style="stop-color:#03A4DE"/>
				<stop  offset="0.5562" style="stop-color:#00A3DE"/>
				<stop  offset="0.6034" style="stop-color:#01A0DA"/>
				<stop  offset="0.6503" style="stop-color:#0498CE"/>
				<stop  offset="0.697" style="stop-color:#088BBA"/>
				<stop  offset="0.7437" style="stop-color:#0E789E"/>
				<stop  offset="0.7903" style="stop-color:#17607A"/>
				<stop  offset="0.8363" style="stop-color:#20424F"/>
				<stop  offset="0.8708" style="stop-color:#292929"/>
			</radialGradient>
			<path class="st10" d="M14,35h21V14C23.4,14,14,23.4,14,35z"/>
			
				<radialGradient id="SVGID_10_" cx="-59.0655" cy="-81.6504" r="279.7093" gradientTransform="matrix(0.2968 0 0 0.2968 24.6137 24.6137)" gradientUnits="userSpaceOnUse">
				<stop  offset="0.1685" style="stop-color:#FFFFFF"/>
				<stop  offset="0.1884" style="stop-color:#E2F5FB"/>
				<stop  offset="0.2282" style="stop-color:#AEE2F4"/>
				<stop  offset="0.2697" style="stop-color:#7FD1EE"/>
				<stop  offset="0.312" style="stop-color:#58C3E9"/>
				<stop  offset="0.3554" style="stop-color:#38B7E5"/>
				<stop  offset="0.4002" style="stop-color:#1FAEE2"/>
				<stop  offset="0.447" style="stop-color:#0EA8E0"/>
				<stop  offset="0.4971" style="stop-color:#03A4DE"/>
				<stop  offset="0.5562" style="stop-color:#00A3DE"/>
				<stop  offset="0.6034" style="stop-color:#01A0DA"/>
				<stop  offset="0.6503" style="stop-color:#0498CE"/>
				<stop  offset="0.697" style="stop-color:#088BBA"/>
				<stop  offset="0.7437" style="stop-color:#0E789E"/>
				<stop  offset="0.7903" style="stop-color:#17607A"/>
				<stop  offset="0.8363" style="stop-color:#20424F"/>
				<stop  offset="0.8708" style="stop-color:#292929"/>
			</radialGradient>
			<path class="st11" d="M35,35v21c11.6,0,21-9.4,21-21H35z"/>
		</g>
		
			<radialGradient id="SVGID_11_" cx="-40.9124" cy="-35.017" r="106.5216" gradientTransform="matrix(0.2968 0 0 0.2968 24.6137 24.6137)" gradientUnits="userSpaceOnUse">
			<stop  offset="0" style="stop-color:#E6E6E6"/>
			<stop  offset="0.1045" style="stop-color:#D6D6D6"/>
			<stop  offset="0.3074" style="stop-color:#ADADAD"/>
			<stop  offset="0.5884" style="stop-color:#6C6C6C"/>
			<stop  offset="0.9335" style="stop-color:#121212"/>
			<stop  offset="1" style="stop-color:#000000"/>
		</radialGradient>
		<polygon class="st12" points="56.1,34.6 35.4,34.6 35.4,13.9 34.6,13.9 34.6,34.6 13.9,34.6 13.9,35.4 34.6,35.4 34.6,56.1 
			35.4,56.1 35.4,35.4 56.1,35.4 		"/>
		<linearGradient id="SVGID_12_" gradientUnits="userSpaceOnUse" x1="30.8551" y1="6.3297" x2="61.6815" y2="36.1181">
			<stop  offset="0" style="stop-color:#EEF0F3"/>
			<stop  offset="0.1126" style="stop-color:#E9EBED"/>
			<stop  offset="0.2564" style="stop-color:#D9DBDE"/>
			<stop  offset="0.4173" style="stop-color:#BFC1C3"/>
			<stop  offset="0.5906" style="stop-color:#9C9D9F"/>
			<stop  offset="0.7738" style="stop-color:#6E6F70"/>
			<stop  offset="0.9626" style="stop-color:#373737"/>
			<stop  offset="1" style="stop-color:#2B2B2B"/>
		</linearGradient>
		<path class="st13" d="M35.4,14.5c11.1,0.2,20,9.1,20.2,20.2h0.4c-0.2-11.3-9.3-20.4-20.5-20.5V14.5z"/>
		<path class="st14" d="M14.4,34.6c0.2-11.1,9.1-20,20.2-20.2V14C23.3,14.2,14.2,23.3,14,34.6H14.4z"/>
		<linearGradient id="SVGID_13_" gradientUnits="userSpaceOnUse" x1="5.8342" y1="31.48" x2="36.6608" y2="61.2687">
			<stop  offset="0" style="stop-color:#EEF0F3"/>
			<stop  offset="0.1126" style="stop-color:#E9EBED"/>
			<stop  offset="0.2564" style="stop-color:#D9DBDE"/>
			<stop  offset="0.4173" style="stop-color:#BFC1C3"/>
			<stop  offset="0.5906" style="stop-color:#9C9D9F"/>
			<stop  offset="0.7738" style="stop-color:#6E6F70"/>
			<stop  offset="0.9626" style="stop-color:#373737"/>
			<stop  offset="1" style="stop-color:#2B2B2B"/>
		</linearGradient>
		<path class="st15" d="M34.6,55.5c-11.1-0.2-20-9.1-20.2-20.2h-0.4c0.2,11.3,9.3,20.4,20.5,20.5V55.5z"/>
		<path class="st16" d="M55.6,35.4c-0.2,11.1-9.1,20-20.2,20.2v0.4c11.3-0.2,20.4-9.3,20.5-20.5H55.6z"/>
		<linearGradient id="SVGID_14_" gradientUnits="userSpaceOnUse" x1="20.7475" y1="20.8575" x2="36.7325" y2="36.3043">
			<stop  offset="0" style="stop-color:#BDD5E5"/>
			<stop  offset="0.1445" style="stop-color:#B5CEDF"/>
			<stop  offset="0.3699" style="stop-color:#9FBCCD"/>
			<stop  offset="0.6482" style="stop-color:#7B9EB1"/>
			<stop  offset="0.9658" style="stop-color:#49758B"/>
			<stop  offset="1" style="stop-color:#437086"/>
		</linearGradient>
		<polygon class="st17" points="34.2,14 34.2,34.2 14.1,34.2 14.1,34.6 34.2,34.6 34.6,34.6 34.6,34.2 34.6,14 		"/>
		<linearGradient id="SVGID_15_" gradientUnits="userSpaceOnUse" x1="12.7416" y1="24.6423" x2="43.2586" y2="54.1318">
			<stop  offset="0" style="stop-color:#EEF0F3"/>
			<stop  offset="0.1015" style="stop-color:#E5E7EA"/>
			<stop  offset="0.268" style="stop-color:#CDCFD1"/>
			<stop  offset="0.4788" style="stop-color:#A6A7A9"/>
			<stop  offset="0.7256" style="stop-color:#707071"/>
			<stop  offset="1" style="stop-color:#2B2B2B"/>
		</linearGradient>
		<polygon class="st18" points="34.2,55.7 34.2,35.8 14.2,35.8 14.2,35.4 34.2,35.4 34.6,35.4 34.6,35.8 34.6,55.7 		"/>
		<linearGradient id="SVGID_16_" gradientUnits="userSpaceOnUse" x1="35.2346" y1="35.5813" x2="45.9391" y2="45.9254">
			<stop  offset="0" style="stop-color:#D6DDE8"/>
			<stop  offset="0.1215" style="stop-color:#D1DAE5"/>
			<stop  offset="0.26" style="stop-color:#C4D1DE"/>
			<stop  offset="0.4067" style="stop-color:#ADC2D1"/>
			<stop  offset="0.5594" style="stop-color:#8DAEBF"/>
			<stop  offset="0.7165" style="stop-color:#6493A8"/>
			<stop  offset="0.875" style="stop-color:#32738C"/>
			<stop  offset="0.9719" style="stop-color:#105D79"/>
		</linearGradient>
		<polygon class="st19" points="35.8,55.7 35.8,35.8 55.7,35.8 55.7,35.4 35.8,35.4 35.4,35.4 35.4,35.8 35.4,55.7 		"/>
		<linearGradient id="SVGID_17_" gradientUnits="userSpaceOnUse" x1="24.2846" y1="13.4507" x2="54.768" y2="42.9078">
			<stop  offset="0" style="stop-color:#EEF0F3"/>
			<stop  offset="0.1126" style="stop-color:#E9EBED"/>
			<stop  offset="0.2564" style="stop-color:#D9DBDE"/>
			<stop  offset="0.4173" style="stop-color:#BFC1C3"/>
			<stop  offset="0.5906" style="stop-color:#9C9D9F"/>
			<stop  offset="0.7738" style="stop-color:#6E6F70"/>
			<stop  offset="0.9626" style="stop-color:#373737"/>
			<stop  offset="1" style="stop-color:#2B2B2B"/>
		</linearGradient>
		<polygon class="st20" points="35.8,14.2 35.8,34.2 55.7,34.2 55.7,34.5 35.8,34.5 35.4,34.5 35.4,34.2 35.4,14.2 		"/>
	</g>
</g>
</svg>
